<svg width="219" height="136" viewBox="0 0 219 136" fill="none" xmlns="http://www.w3.org/2000/svg">
<path d="M138.135 33.1918C139.179 25.3102 135.276 14.9263 127.3 11.3079C115.754 6.07003 101.525 7.80969 90.2126 11.3079C68.9312 17.889 47.985 28.809 31.9395 43.7541C17.5412 57.1649 1.10334 80.6587 11.0284 100.585C17.7743 114.129 34.3692 122.668 49.6528 123.653C71.7085 125.073 91.7821 110.669 106.033 96.3147C119.414 82.8359 128.086 66.8867 133.886 49.3414C135.165 45.4735 136.412 40.7495 137.42 36.7301C137.464 36.5541 138.72 29.3258 138.135 35.1736C136.935 47.1916 136.061 59.2134 136.789 71.2916C137.731 86.9233 139.69 105.891 149.369 119.183C153.386 124.698 160.512 130.85 168.135 127.564C179.91 122.487 184.304 107.897 186.858 97.1129C188.156 91.6307 187.829 83.3213 190.602 78.2358C191.367 76.8337 193.823 90.5025 193.823 100.585C193.823 110.668 195.327 120.076 199.254 125.594C201.962 129.4 206.189 128.26 206.042 127.564" stroke="white" stroke-width="14.5777" stroke-linecap="round"/>
<path d="M170.099 35.3043C177.662 46.6021 186.163 55.7738 199.657 51.682M199.657 51.682C209.924 48.5688 213.88 35.0173 208.822 26.7921C202.465 16.4548 188.802 14.668 177.662 18.1904C157.597 28.2562 177.662 58.3515 199.657 51.682Z" stroke="white" stroke-width="14.5777" stroke-linecap="round"/>
</svg>
