<svg width="182" height="182" viewBox="0 0 182 182" fill="none" xmlns="http://www.w3.org/2000/svg">
<circle cx="91" cy="91" r="91" fill="#45CA2F"/>
<path d="M104.093 68.2441C104.705 63.6172 102.414 57.5212 97.7316 55.397C90.9534 52.3221 82.5999 53.3434 75.959 55.397C63.4655 59.2605 51.1689 65.6712 41.7492 74.4449C33.2966 82.3178 23.6466 96.11 29.4732 107.808C33.4334 115.759 43.1756 120.772 52.148 121.35C65.096 122.184 76.8803 113.728 85.2463 105.301C93.1018 97.3882 98.1927 88.0251 101.598 77.7249C102.348 75.4543 103.081 72.6809 103.673 70.3213C103.699 70.218 104.435 65.9746 104.093 69.4076C103.388 76.4629 102.875 83.5203 103.302 90.611C103.855 99.7877 105.005 110.923 110.687 118.726C113.045 121.964 117.229 125.575 121.704 123.646C128.616 120.666 131.196 112.101 132.695 105.77C133.457 102.551 133.266 97.6732 134.894 94.6876C135.343 93.8646 136.785 101.889 136.785 107.808C136.785 113.727 137.667 119.25 139.973 122.49C141.563 124.724 144.044 124.055 143.958 123.646" stroke="white" stroke-width="10" stroke-linecap="round"/>
<path d="M122.856 69.4839C127.296 76.1164 132.287 81.5007 140.209 79.0986M140.209 79.0986C146.236 77.2709 148.559 69.3154 145.589 64.4867C141.857 58.4182 133.837 57.3692 127.296 59.4371C115.517 65.3463 127.296 83.014 140.209 79.0986Z" stroke="white" stroke-width="10" stroke-linecap="round"/>
</svg>
